<svg width="42" height="66" viewBox="0 0 42 66" fill="none" xmlns="http://www.w3.org/2000/svg">
<path d="M21 66C23.7614 66 26 64.8807 26 63.5C26 62.1193 23.7614 61 21 61C18.2386 61 16 62.1193 16 63.5C16 64.8807 18.2386 66 21 66Z" fill="#FF0000"/>
<path fill-rule="evenodd" clip-rule="evenodd" d="M21 0C32.598 0 42 9.40202 42 21C42 31.9234 33.6599 40.8989 23 41.906V62C23 63.1046 22.1046 64 21 64C19.8954 64 19 63.1046 19 62V41.906C8.34014 40.8989 0 31.9234 0 21C0 9.40202 9.40202 0 21 0Z" fill="white"/>
<path d="M38 21C38 11.6112 30.3888 4 21 4C11.6112 4 4 11.6112 4 21C4 30.3888 11.6112 38 21 38C30.3888 38 38 30.3888 38 21Z" fill="#FF0000"/>
<path d="M28 21C28 17.134 24.866 14 21 14C17.134 14 14 17.134 14 21C14 24.866 17.134 28 21 28C24.866 28 28 24.866 28 21Z" fill="white"/>
</svg>
